<svg width="196" height="72" viewBox="0 0 196 72" fill="none" xmlns="http://www.w3.org/2000/svg">
<path d="M157.107 1.55636L118.209 69.2891H196L157.107 1.55636ZM157.107 30.3405L171.682 55.7177H142.539L157.107 30.3405ZM129.175 16.1352H98.3209V69.2891H82.8629V2.56941H129.175V16.1352ZM35.8078 0C16.0659 0 0 16.1465 0 36C0 55.8535 16.0603 72 35.8078 72C55.5553 72 71.6156 55.8535 71.6156 36C71.6156 16.1465 55.5553 0 35.8078 0ZM35.8078 57.6589C24.1721 57.6589 14.7037 47.9415 14.7037 36C14.7037 24.0585 24.1721 14.3411 35.8078 14.3411C47.4435 14.3411 56.9119 24.0585 56.9119 36C56.9119 47.9415 47.4491 57.6589 35.8078 57.6589Z" fill="#B5B5B5"/>
</svg>
