<svg xmlns="http://www.w3.org/2000/svg" fill="none" class="hidden h-10 w-auto lg:block" viewBox="0 0 151 40"><path fill="#fff" d="M47.236 24.636v6.112H25.855l3.601-8.27h-2.36l-3.602 8.27H12.541v-6.112h-2.36v5.872c0 1.924-.121 2.699-.226 3.007a3 3 0 0 1-1.188 1.563c-.572.399-1.293.602-2.128.602-.834 0-1.563-.21-2.165-.617-.601-.406-.992-.954-1.203-1.653-.143-.512-.218-1.489-.218-2.895v-5.871H.723v6.06c0 1.871.21 3.247.646 4.202a4.97 4.97 0 0 0 1.992 2.255c.88.534 1.985.804 3.286.804s2.398-.27 3.27-.804a5 5 0 0 0 1.977-2.24c.226-.489.391-1.075.496-1.782h37.177v-8.495h-2.331zM10.292 10.503v-.015A4.6 4.6 0 0 0 9.104 8.93q-.566-.473-1.48-.857l-.234-.097.203-.15c.466-.347.85-.76 1.128-1.226q.586-.993.586-2.188-.002-1.286-.669-2.346A4.07 4.07 0 0 0 6.811.504C6.051.165 4.991 0 3.586 0H0v17.6h4.924c1.744 0 3.158-.504 4.203-1.49 1.045-.992 1.579-2.217 1.579-3.645 0-.7-.143-1.354-.414-1.955zM2.09 2.09h1.79c1.15 0 1.991.21 2.503.624.503.413.752.962.752 1.699 0 .549-.15 1.03-.46 1.481a2.6 2.6 0 0 1-1.247.977c-.534.21-1.39.316-2.556.316H2.09zm5.932 11.991c-.331.489-.775.85-1.324 1.083-.556.233-1.458.353-2.683.353H2.082V9.33h.767c1.429 0 2.444.067 3.007.203.827.203 1.489.571 1.955 1.105s.7 1.143.7 1.864c0 .564-.174 1.098-.504 1.58zm14.802-.504a4.5 4.5 0 0 1-1.744 1.73 4.86 4.86 0 0 1-2.414.646 4.6 4.6 0 0 1-2.36-.646 4.8 4.8 0 0 1-1.752-1.812 4.9 4.9 0 0 1-.654-2.436c0-.842.218-1.67.647-2.436a4.7 4.7 0 0 1 1.736-1.782 4.7 4.7 0 0 1 2.383-.639c1.354 0 2.459.459 3.391 1.399.91.932 1.376 2.112 1.376 3.503 0 .91-.203 1.744-.617 2.473m.519-9.164v1.834a6.5 6.5 0 0 0-1.834-1.466c-.88-.466-1.88-.699-2.962-.699-1.872 0-3.496.684-4.835 2.03-1.33 1.346-2.007 2.992-2.007 4.887s.67 3.6 1.985 4.946c1.323 1.354 2.94 2.045 4.804 2.045 1.052 0 2.03-.225 2.917-.661.692-.338 1.33-.82 1.925-1.421v1.752h2.15V4.413h-2.15zM48.94 6.894a4.7 4.7 0 0 0-1.758-2.105c-.79-.519-1.707-.782-2.722-.782a5.63 5.63 0 0 0-2.759.692 6.7 6.7 0 0 0-1.662 1.308V4.33h-2.33v13.412h2.33v-5.007c0-1.638.076-2.774.226-3.375a4.3 4.3 0 0 1 1.436-2.256 3.7 3.7 0 0 1 2.436-.902c.782 0 1.42.188 1.887.564q.71.564.97 1.714c.112.459.172 1.421.172 2.85v6.412h2.331v-6.894c0-1.796-.18-3.09-.556-3.962M27.569 20.862l3.698-8.961L26.133 0h2.36l3.925 8.3L35.8 0h2.36l-8.23 20.862z"/><path fill="#fff" d="m20.65 37.95 2.047 2.048 2.047-2.047-2.047-2.047z"/><path fill="#fff" d="M24.428 37.953 26.475 40l2.046-2.047-2.046-2.046zm18.639-.004 2.046 2.046 2.047-2.046-2.047-2.047zM4.647 21.797l2.046 2.047 2.047-2.047-2.047-2.047z"/><path stroke="#fff" d="M70.566 5.5v29"/><path fill="#fff" d="M125.851 32.498h-1.7v1.458h1.51v.447h-1.51v1.524h1.763v.447h-2.238V32.05h2.175zm-5.627 2.651-.456 1.225h-.489l1.63-4.324h.59l1.629 4.324h-.494l-.457-1.225zm.165-.447h1.617l-.812-2.185zm-4.06-2.652v2.684c0 .434.032.629.14.804.164.272.526.46.894.46.361 0 .723-.188.887-.46.108-.175.14-.37.14-.804V32.05h.476v2.814c0 .46-.076.739-.279.998a1.54 1.54 0 0 1-1.224.59 1.54 1.54 0 0 1-1.23-.59c-.203-.26-.279-.538-.279-.998V32.05zm-13.951-11.242c-3.513 0-6.371-2.908-6.371-6.485s2.858-6.482 6.371-6.482c3.512 0 6.374 2.908 6.374 6.485s-2.859 6.485-6.374 6.485m0-17.263c-5.961 0-10.812 4.834-10.812 10.778s4.85 10.775 10.812 10.775 10.815-4.833 10.815-10.775c0-5.94-4.851-10.778-10.815-10.778m28.197 4.83h-9.318v15.91h-4.667V4.317h13.985v4.064zm8.433 4.253 4.4 7.6h-8.803l4.4-7.6zm0-8.617-11.749 20.277h23.492z"/></svg>